<?xml version="1.0" encoding="UTF-8"?>
<!--Generator: Apple Native CoreSVG 175-->
<!DOCTYPE svg
PUBLIC "-//W3C//DTD SVG 1.1//EN"
       "http://www.w3.org/Graphics/SVG/1.1/DTD/svg11.dtd">
<svg version="1.1" xmlns="http://www.w3.org/2000/svg" xmlns:xlink="http://www.w3.org/1999/xlink" width="19.3157" height="20.6618">
 <g>
  <rect height="20.6618" opacity="0" width="19.3157" x="0" y="0"/>
  <path d="M3.0636 19.2817L14.5309 19.2817Q15.8473 19.2817 16.577 18.5251Q17.3068 17.7684 17.3068 16.2595L17.3068 5.81744L15.7257 7.38815L15.7257 16.1725Q15.7257 16.9355 15.37 17.3233Q15.0142 17.711 14.506 17.711L3.08852 17.711Q2.35658 17.711 1.96881 17.3233Q1.58107 16.9355 1.58107 16.1725L1.58107 5.09451Q1.58107 4.33149 1.96881 3.94374Q2.35658 3.556 3.08852 3.556L11.9888 3.556L13.5595 1.98532L3.0636 1.98532Q1.54225 1.98532 0.771123 2.74091Q0 3.49652 0 5.00749L0 16.2595Q0 17.7705 0.771123 18.5261Q1.54225 19.2817 3.0636 19.2817ZM6.62792 12.9544L8.52803 12.1264L17.641 3.01558L16.2993 1.70282L7.1988 10.8055L6.32522 12.6413Q6.25682 12.7678 6.3698 12.8891Q6.4828 13.0103 6.62792 12.9544ZM18.3631 2.29555L19.0665 1.57971Q19.3094 1.31827 19.3156 0.997847Q19.3218 0.677428 19.0728 0.438751L18.843 0.208913Q18.6168-0.0172733 18.2994 0.00142819Q17.9821 0.0201135 17.7455 0.258774L17.0297 0.962094Z" fill="rgba(0,0,0,0.85)"/>
 </g>
</svg>
